<?xml version="1.0" encoding="UTF-8" standalone="no"?>
<!-- Created with Inkscape (http://www.inkscape.org/) -->

<svg
   xmlns:dc="http://purl.org/dc/elements/1.1/"
   xmlns:cc="http://creativecommons.org/ns#"
   xmlns:rdf="http://www.w3.org/1999/02/22-rdf-syntax-ns#"
   xmlns:svg="http://www.w3.org/2000/svg"
   xmlns="http://www.w3.org/2000/svg"
   xmlns:sodipodi="http://sodipodi.sourceforge.net/DTD/sodipodi-0.dtd"
   xmlns:inkscape="http://www.inkscape.org/namespaces/inkscape"
   width="100.54166mm"
   height="100.54166mm"
   viewBox="0 0 100.54166 100.54166"
   version="1.1"
   id="svg8"
   inkscape:version="0.92.4 (5da689c313, 2019-01-14)"
   sodipodi:docname="timer.svg">
  <defs
     id="defs2" />
  <sodipodi:namedview
     id="base"
     pagecolor="#ffffff"
     bordercolor="#666666"
     borderopacity="1.0"
     inkscape:pageopacity="0.0"
     inkscape:pageshadow="2"
     inkscape:zoom="0.7"
     inkscape:cx="165.18534"
     inkscape:cy="217.6295"
     inkscape:document-units="mm"
     inkscape:current-layer="layer1"
     showgrid="false"
     fit-margin-top="0"
     fit-margin-left="0"
     fit-margin-right="0"
     fit-margin-bottom="0"
     inkscape:window-width="1920"
     inkscape:window-height="1013"
     inkscape:window-x="-9"
     inkscape:window-y="29"
     inkscape:window-maximized="1" />
  <metadata
     id="metadata5">
    <rdf:RDF>
      <cc:Work
         rdf:about="">
        <dc:format>image/svg+xml</dc:format>
        <dc:type
           rdf:resource="http://purl.org/dc/dcmitype/StillImage" />
        <dc:title></dc:title>
      </cc:Work>
    </rdf:RDF>
  </metadata>
  <g
     inkscape:label="Layer 1"
     inkscape:groupmode="layer"
     id="layer1"
     transform="translate(-96.383929,-91.758929)">
    <g
       id="g3774"
       transform="matrix(0.26458333,0,0,0.26458333,96.383929,91.758929)"
       style="fill:#ffdd55">
      <g
         id="g3717"
         style="fill:#ffdd55">
	<path
   id="path3713"
   d="M 190,0 C 85.233,0 0,85.233 0,190 0,294.767 85.233,380 190,380 294.767,380 380,294.767 380,190 380,85.233 294.767,0 190,0 Z m 0,340 C 107.29,340 40,272.71 40,190 40,107.29 107.29,40 190,40 c 82.71,0 150,67.29 150,150 0,82.71 -67.29,150 -150,150 z"
   inkscape:connector-curvature="0"
   style="fill:#ffdd55" />

	<path
   id="path3715"
   d="M 291.993,184.132 H 217.796 C 215.1,179.739 211.393,176.032 207,173.336 V 84.139 c 0,-9.389 -7.611,-17 -17,-17 -9.389,0 -17,7.611 -17,17 v 89.197 c -9.345,5.737 -15.593,16.05 -15.593,27.796 0,17.972 14.622,32.593 32.593,32.593 11.746,0 22.059,-6.248 27.796,-15.593 h 74.197 c 9.389,0 17,-7.611 17,-17 0,-9.389 -7.611,-17 -17,-17 z"
   inkscape:connector-curvature="0"
   style="fill:#ffdd55" />

</g>
      <g
         id="g3719"
         style="fill:#ffdd55">
</g>
      <g
         id="g3721"
         style="fill:#ffdd55">
</g>
      <g
         id="g3723"
         style="fill:#ffdd55">
</g>
      <g
         id="g3725"
         style="fill:#ffdd55">
</g>
      <g
         id="g3727"
         style="fill:#ffdd55">
</g>
      <g
         id="g3729"
         style="fill:#ffdd55">
</g>
      <g
         id="g3731"
         style="fill:#ffdd55">
</g>
      <g
         id="g3733"
         style="fill:#ffdd55">
</g>
      <g
         id="g3735"
         style="fill:#ffdd55">
</g>
      <g
         id="g3737"
         style="fill:#ffdd55">
</g>
      <g
         id="g3739"
         style="fill:#ffdd55">
</g>
      <g
         id="g3741"
         style="fill:#ffdd55">
</g>
      <g
         id="g3743"
         style="fill:#ffdd55">
</g>
      <g
         id="g3745"
         style="fill:#ffdd55">
</g>
      <g
         id="g3747"
         style="fill:#ffdd55">
</g>
    </g>
  </g>
</svg>
